<?xml version="1.0" encoding="UTF-8"?>
<svg id="Layer_2" data-name="Layer 2" xmlns="http://www.w3.org/2000/svg" viewBox="0 0 972.08 366.21">
  <defs>
    <style>
      .cls-1 {
        fill: #000;
        stroke-width: 0px;
      }
    </style>
  </defs>
  <g id="Layer_1-2" data-name="Layer 1">
    <path class="cls-1" d="M111.79,142.64c61.71,0,111.79,50.08,111.79,111.79s-50.08,111.79-111.79,111.79S0,316.13,0,254.42s50.08-111.79,111.79-111.79ZM111.79,172.6c-45.16,0-82.27,36.67-82.27,81.83s37.11,82.27,82.27,82.27,81.83-37.11,81.83-82.27-36.67-81.83-81.83-81.83Z"/>
    <path class="cls-1" d="M279.91,14.76v300.48l167.68-169.47c3.13-2.68,6.71-4.47,10.73-4.47,3.58,0,7.6,1.79,10.28,4.47,5.81,5.81,5.81,15.2,0,21.02l-86.75,88.09,86.75,85.85c3.13,3.13,4.47,6.71,4.47,10.73s-1.34,7.6-4.47,10.28c-2.68,3.13-6.71,4.47-10.28,4.47-4.02,0-7.6-1.34-10.73-4.47l-86.75-85.85-84.96,85.85c-3.13,3.13-6.71,4.47-10.73,4.47-3.58,0-7.6-1.34-10.28-4.47-3.58-2.68-4.47-6.71-4.47-10.73V14.76c0-8.05,6.26-14.76,14.76-14.76,8.05,0,14.76,6.71,14.76,14.76Z"/>
    <path class="cls-1" d="M693.07,14.76v300.48l-167.68-169.47c-3.13-2.68-6.71-4.47-10.73-4.47-3.58,0-7.6,1.79-10.28,4.47-5.81,5.81-5.81,15.2,0,21.02l86.75,88.09-86.75,85.85c-3.13,3.13-4.47,6.71-4.47,10.73s1.34,7.6,4.47,10.28c2.68,3.13,6.71,4.47,10.28,4.47,4.02,0,7.6-1.34,10.73-4.47l86.75-85.85,84.96,85.85c3.13,3.13,6.71,4.47,10.73,4.47,3.58,0,7.6-1.34,10.28-4.47,3.58-2.68,4.47-6.71,4.47-10.73V14.76c0-8.05-6.26-14.76-14.76-14.76-8.05,0-14.76,6.71-14.76,14.76Z"/>
    <path class="cls-1" d="M749.4,254.87c0-61.71,49.19-112.23,111.34-112.23s111.34,50.08,111.34,111.34v96.58c0,8.5-6.71,15.2-14.76,15.2s-14.76-6.71-14.76-15.2v-96.58c0-44.71-36.67-81.38-81.83-81.38-22.36,0-43.37,8.94-59.02,25.04-15.65,16.1-23.7,37.56-22.8,59.92,1.79,44.27,38.01,78.25,81.83,78.25,17.89,0,34.43-5.37,48.74-16.1,2.68-1.79,5.81-2.68,8.94-2.68,4.02,0,8.05,1.79,11.18,4.92,2.68,3.13,4.02,7.15,3.58,11.18-.45,4.02-2.68,8.05-5.81,10.28-19.67,14.76-42.48,22.36-66.62,22.36-61.26,0-111.34-49.63-111.34-110.89Z"/>
    <circle class="cls-1" cx="111.79" cy="254.42" r="50.45"/>
    <circle class="cls-1" cx="860.74" cy="254.42" r="50.45"/>
  </g>
</svg>